<svg width="24" height="24" viewBox="0 0 24 24" fill="none" xmlns="http://www.w3.org/2000/svg">
<g clip-path="url(#clip0_3982_11820)">
<path d="M21 12C21 10.2201 20.4722 8.48008 19.4834 7.00008C18.4945 5.52008 17.089 4.36653 15.4446 3.68528C13.8002 3.00403 11.9907 2.82569 10.2449 3.17279C8.49915 3.5199 6.8955 4.37686 5.63675 5.63534C4.378 6.89381 3.52067 8.49727 3.17318 10.243C2.82569 11.9887 3.00363 13.7982 3.68451 15.4428C4.3654 17.0873 5.51864 18.4931 6.99842 19.4823C8.4782 20.4714 10.2181 20.9996 11.998 21" stroke="#7C7C7C" style="stroke:#7C7C7C;stroke:color(display-p3 0.4847 0.4847 0.4847);stroke-opacity:1;" stroke-width="1.5" stroke-linecap="round" stroke-linejoin="round"/>
<path d="M17.001 19C17.001 19.5304 17.2117 20.0391 17.5868 20.4142C17.9618 20.7893 18.4705 21 19.001 21C19.5314 21 20.0401 20.7893 20.4152 20.4142C20.7903 20.0391 21.001 19.5304 21.001 19C21.001 18.4696 20.7903 17.9609 20.4152 17.5858C20.0401 17.2107 19.5314 17 19.001 17C18.4705 17 17.9618 17.2107 17.5868 17.5858C17.2117 17.9609 17.001 18.4696 17.001 19Z" stroke="#7C7C7C" style="stroke:#7C7C7C;stroke:color(display-p3 0.4847 0.4847 0.4847);stroke-opacity:1;" stroke-width="1.5" stroke-linecap="round" stroke-linejoin="round"/>
<path d="M19.001 15.5V17" stroke="#7C7C7C" style="stroke:#7C7C7C;stroke:color(display-p3 0.4847 0.4847 0.4847);stroke-opacity:1;" stroke-width="1.5" stroke-linecap="round" stroke-linejoin="round"/>
<path d="M19.001 21V22.5" stroke="#7C7C7C" style="stroke:#7C7C7C;stroke:color(display-p3 0.4847 0.4847 0.4847);stroke-opacity:1;" stroke-width="1.5" stroke-linecap="round" stroke-linejoin="round"/>
<path d="M22.0319 17.25L20.7329 18" stroke="#7C7C7C" style="stroke:#7C7C7C;stroke:color(display-p3 0.4847 0.4847 0.4847);stroke-opacity:1;" stroke-width="1.5" stroke-linecap="round" stroke-linejoin="round"/>
<path d="M17.27 20L15.97 20.75" stroke="#7C7C7C" style="stroke:#7C7C7C;stroke:color(display-p3 0.4847 0.4847 0.4847);stroke-opacity:1;" stroke-width="1.5" stroke-linecap="round" stroke-linejoin="round"/>
<path d="M15.97 17.25L17.27 18" stroke="#7C7C7C" style="stroke:#7C7C7C;stroke:color(display-p3 0.4847 0.4847 0.4847);stroke-opacity:1;" stroke-width="1.5" stroke-linecap="round" stroke-linejoin="round"/>
<path d="M20.7329 20L22.0329 20.75" stroke="#7C7C7C" style="stroke:#7C7C7C;stroke:color(display-p3 0.4847 0.4847 0.4847);stroke-opacity:1;" stroke-width="1.5" stroke-linecap="round" stroke-linejoin="round"/>
<path d="M12 7V12L14 14" stroke="#7C7C7C" style="stroke:#7C7C7C;stroke:color(display-p3 0.4847 0.4847 0.4847);stroke-opacity:1;" stroke-width="1.5" stroke-linecap="round" stroke-linejoin="round"/>
</g>
<defs>
<clipPath id="clip0_3982_11820">
<rect width="24" height="24" fill="white" style="fill:white;fill-opacity:1;"/>
</clipPath>
</defs>
</svg>
