<svg width="100" height="100" viewBox="0 0 100 100" fill="none" xmlns="http://www.w3.org/2000/svg">
<g clip-path="url(#clip0_301_1414)">
<path d="M35.6667 15.375C31.117 17.2583 26.9828 20.0191 23.5 23.5" stroke="#1AC929" style="stroke:#1AC929;stroke:color(display-p3 0.1038 0.7868 0.1607);stroke-opacity:1;" stroke-width="5" stroke-linecap="round" stroke-linejoin="round"/>
<path d="M15.375 35.6667C13.4857 40.2096 12.5088 45.0799 12.5 50" stroke="#1AC929" style="stroke:#1AC929;stroke:color(display-p3 0.1038 0.7868 0.1607);stroke-opacity:1;" stroke-width="5" stroke-linecap="round" stroke-linejoin="round"/>
<path d="M15.375 64.3333C17.2583 68.883 20.0191 73.0172 23.5 76.5" stroke="#1AC929" style="stroke:#1AC929;stroke:color(display-p3 0.1038 0.7868 0.1607);stroke-opacity:1;" stroke-width="5" stroke-linecap="round" stroke-linejoin="round"/>
<path d="M35.667 84.625C40.2099 86.5143 45.0802 87.4912 50.0003 87.5" stroke="#1AC929" style="stroke:#1AC929;stroke:color(display-p3 0.1038 0.7868 0.1607);stroke-opacity:1;" stroke-width="5" stroke-linecap="round" stroke-linejoin="round"/>
<path d="M64.333 84.625C68.8827 82.7417 73.0169 79.9809 76.4997 76.5" stroke="#1AC929" style="stroke:#1AC929;stroke:color(display-p3 0.1038 0.7868 0.1607);stroke-opacity:1;" stroke-width="5" stroke-linecap="round" stroke-linejoin="round"/>
<path d="M84.625 64.3333C86.5143 59.7904 87.4912 54.9201 87.5 50" stroke="#1AC929" style="stroke:#1AC929;stroke:color(display-p3 0.1038 0.7868 0.1607);stroke-opacity:1;" stroke-width="5" stroke-linecap="round" stroke-linejoin="round"/>
<path d="M84.625 35.6667C82.7417 31.117 79.9809 26.9828 76.5 23.5" stroke="#1AC929" style="stroke:#1AC929;stroke:color(display-p3 0.1038 0.7868 0.1607);stroke-opacity:1;" stroke-width="5" stroke-linecap="round" stroke-linejoin="round"/>
<path d="M64.3333 15.375C59.7904 13.4857 54.9201 12.5088 50 12.5" stroke="#1AC929" style="stroke:#1AC929;stroke:color(display-p3 0.1038 0.7868 0.1607);stroke-opacity:1;" stroke-width="5" stroke-linecap="round" stroke-linejoin="round"/>
<path d="M37.5 50L45.8333 58.3333L62.5 41.6667" stroke="#1AC929" style="stroke:#1AC929;stroke:color(display-p3 0.1038 0.7868 0.1607);stroke-opacity:1;" stroke-width="5" stroke-linecap="round" stroke-linejoin="round"/>
</g>
<defs>
<clipPath id="clip0_301_1414">
<rect width="100" height="100" fill="white" style="fill:white;fill-opacity:1;"/>
</clipPath>
</defs>
</svg>
