<svg width="21" height="20" viewBox="0 0 21 20" fill="none" xmlns="http://www.w3.org/2000/svg">
<g clip-path="url(#clip0_786_777)">
<path d="M3.53333 16.6668H6.86666L15.6167 7.91676C15.8355 7.69789 16.0091 7.43805 16.1276 7.15208C16.246 6.86612 16.307 6.55962 16.307 6.25009C16.307 5.94056 16.246 5.63406 16.1276 5.3481C16.0091 5.06213 15.8355 4.80229 15.6167 4.58342C15.3978 4.36455 15.138 4.19094 14.852 4.07248C14.566 3.95403 14.2595 3.89307 13.95 3.89307C13.6405 3.89307 13.334 3.95403 13.048 4.07248C12.762 4.19094 12.5022 4.36455 12.2833 4.58342L3.53333 13.3334V16.6668Z" stroke="#7C7C7C" style="stroke:#7C7C7C;stroke:color(display-p3 0.4847 0.4847 0.4847);stroke-opacity:1;" stroke-width="1.5" stroke-linecap="round" stroke-linejoin="round"/>
<path d="M11.45 5.4165L14.7833 8.74984" stroke="#7C7C7C" style="stroke:#7C7C7C;stroke:color(display-p3 0.4847 0.4847 0.4847);stroke-opacity:1;" stroke-width="1.5" stroke-linecap="round" stroke-linejoin="round"/>
<path d="M13.5333 15.8335H18.5333" stroke="#7C7C7C" style="stroke:#7C7C7C;stroke:color(display-p3 0.4847 0.4847 0.4847);stroke-opacity:1;" stroke-width="1.5" stroke-linecap="round" stroke-linejoin="round"/>
</g>
<defs>
<clipPath id="clip0_786_777">
<rect width="20" height="20" fill="white" style="fill:white;fill-opacity:1;" transform="translate(0.199951)"/>
</clipPath>
</defs>
</svg>
