<svg width="21" height="20" viewBox="0 0 21 20" fill="none" xmlns="http://www.w3.org/2000/svg">
<g clip-path="url(#clip0_815_2231)">
<path d="M3.58337 16.6668H6.91671L15.6667 7.91676C15.8856 7.69789 16.0592 7.43805 16.1776 7.15208C16.2961 6.86612 16.3571 6.55962 16.3571 6.25009C16.3571 5.94056 16.2961 5.63406 16.1776 5.3481C16.0592 5.06213 15.8856 4.80229 15.6667 4.58342C15.4478 4.36455 15.188 4.19094 14.902 4.07248C14.6161 3.95403 14.3096 3.89307 14 3.89307C13.6905 3.89307 13.384 3.95403 13.098 4.07248C12.8121 4.19094 12.5522 4.36455 12.3334 4.58342L3.58337 13.3334V16.6668Z" stroke="#7C7C7C" style="stroke:#7C7C7C;stroke:color(display-p3 0.4863 0.4863 0.4863);stroke-opacity:1;" stroke-width="1.5" stroke-linecap="round" stroke-linejoin="round"/>
<path d="M11.5 5.4165L14.8333 8.74984" stroke="#7C7C7C" style="stroke:#7C7C7C;stroke:color(display-p3 0.4863 0.4863 0.4863);stroke-opacity:1;" stroke-width="1.5" stroke-linecap="round" stroke-linejoin="round"/>
<path d="M13.5834 15.8335H18.5834" stroke="#7C7C7C" style="stroke:#7C7C7C;stroke:color(display-p3 0.4863 0.4863 0.4863);stroke-opacity:1;" stroke-width="1.5" stroke-linecap="round" stroke-linejoin="round"/>
<path d="M16.0834 13.3335V18.3335" stroke="#7C7C7C" style="stroke:#7C7C7C;stroke:color(display-p3 0.4863 0.4863 0.4863);stroke-opacity:1;" stroke-width="1.5" stroke-linecap="round" stroke-linejoin="round"/>
</g>
<defs>
<clipPath id="clip0_815_2231">
<rect width="20" height="20" fill="white" style="fill:white;fill-opacity:1;" transform="translate(0.25)"/>
</clipPath>
</defs>
</svg>
